<svg height="768" viewBox="0 0 1024 768" width="1024" xmlns="http://www.w3.org/2000/svg">
	<g fill="#133251">
		<path d="m383.60262-37.296c-1.656 0-3.024 1.296-3.024 2.952v17.424c0 6.48-5.03999 11.664-11.15999 11.664-6.192 0-11.23201-5.184-11.23201-11.664v-17.424c0-1.656-1.368-2.952-3.024-2.952-1.584 0-2.952 1.296-2.952 2.952v17.424.144c.072 9.648 7.776 17.496 17.20801 17.496 9.43199 0 17.06399-7.848 17.13599-17.496v-.144-17.424c0-1.656-1.296-2.952-2.952-2.952z" transform="matrix(1.33 0 0 1.33 -247.270812 409.874742)" />
		<path d="m412.23387-38.808c-9.288 0-16.848 7.776-16.848 17.28v18.576c0 1.584 1.368 2.952 2.952 2.952 1.656 0 3.024-1.368 3.024-2.952v-18.576c0-6.264 4.89601-11.304 10.872-11.304 5.976 0 10.872 5.04 10.872 11.304v18.576c0 1.584 1.29601 2.952 2.952 2.952 1.65601 0 3.02401-1.368 3.02401-2.952v-18.576c0-9.504-7.56-17.28-16.84801-17.28z" transform="matrix(1.33 0 0 1.33 -227.985812 409.874742)" />
		<path d="m457.07525-38.808c-10.584 0-19.224 8.856-19.224 19.8v27.864c0 1.656 1.368 3.024 2.952 3.024 1.656 0 3.024-1.368 3.024-3.024v-13.608c3.456 3.384 8.136 5.472 13.248 5.472 10.584 0 19.224-8.856 19.224-19.728 0-10.944-8.64-19.8-19.224-19.8zm0 33.552c-7.272 0-13.248-6.192-13.248-13.752 0-7.632 5.976-13.824 13.248-13.824 7.344 0 13.248 6.192 13.248 13.824 0 7.56-5.904 13.752-13.248 13.752z" transform="matrix(1.33 0 0 1.33 -208.700812 409.874742)" />
		<path d="m521.27225-21.672c-1.224-9.648-9.288-17.136-19.08-17.136-10.584 0-19.224 8.856-19.224 19.8 0 10.872 8.64 19.728 19.224 19.728 5.976 0 11.304-2.736 14.76-7.128 1.584-1.944.144-4.824-2.304-4.824-.936 0-1.8.432-2.376 1.152-2.376 2.952-6.048 4.824-10.08 4.824-4.536 0-8.496-2.304-10.944-5.976-1.008-1.512-1.728-3.312-2.088-5.184h29.664c1.44 0 2.592-1.152 2.592-2.592 0-.936-.072-1.8-.144-2.664zm-6.048 0h-26.064c1.224-6.336 6.552-11.16 13.032-11.16s11.88 4.824 13.032 11.16z" transform="matrix(1.33 0 0 1.33 -189.415812 409.874742)" />
		<path d="m544.319-38.448c-8.928 1.656-15.696 9.72-15.696 19.44v16.056c0 1.584 1.368 2.952 2.952 2.952 1.656 0 3.024-1.368 3.024-2.952v-16.056c0-6.84 4.68-12.456 10.872-13.608 1.44-.288 2.376-1.512 2.376-2.952 0-1.872-1.656-3.24-3.528-2.88z" transform="matrix(1.33 0 0 1.33 -170.130812 409.874742)" />
		<path d="m569.13425-34.488h-5.904v-1.08c0-4.464 2.952-8.28 6.912-9.288 1.368-.36 2.304-1.584 2.304-2.952 0-1.944-1.872-3.384-3.816-2.88-6.48 1.728-11.376 7.848-11.376 15.12v1.08h-2.952c-1.44 0-2.592 1.152-2.592 2.592 0 1.512 1.152 2.664 2.592 2.664h2.952v26.64c0 1.44 1.224 2.592 2.664 2.592h.72c1.44 0 2.592-1.152 2.592-2.592v-26.64h5.904c1.44 0 2.592-1.152 2.592-2.664 0-1.44-1.152-2.592-2.592-2.592z" transform="matrix(1.33 0 0 1.33 -150.845812 409.874742)" />
		<path d="m613.8035-21.672c-1.224-9.648-9.288-17.136-19.08-17.136-10.584 0-19.224 8.856-19.224 19.8 0 10.872 8.64 19.728 19.224 19.728 5.976 0 11.304-2.736 14.76-7.128 1.584-1.944.144-4.824-2.304-4.824-.936 0-1.8.432-2.376 1.152-2.376 2.952-6.048 4.824-10.08 4.824-4.536 0-8.496-2.304-10.944-5.976-1.008-1.512-1.728-3.312-2.088-5.184h29.664c1.44 0 2.592-1.152 2.592-2.592 0-.936-.072-1.8-.144-2.664zm-6.048 0h-26.064c1.224-6.336 6.552-11.16 13.032-11.16s11.88 4.824 13.032 11.16z" transform="matrix(1.33 0 0 1.33 -131.560812 409.874742)" />
		<path d="m625.04225-50.4c-1.584 0-2.952 1.368-2.952 2.952v44.496c0 1.584 1.368 2.952 2.952 2.952 1.656 0 3.024-1.368 3.024-2.952v-44.496c0-1.584-1.368-2.952-3.024-2.952zm26.496 45.36-14.832-15.552 12.024-13.248c1.08-1.224 1.008-3.096-.216-4.176-1.224-1.152-3.096-1.008-4.176.144l-13.968 15.336c-1.008 1.152-1.008 2.88.072 4.032l16.776 17.568c.576.648 1.368.936 2.16.936.72 0 1.44-.288 2.088-.792 1.152-1.152 1.224-3.096.072-4.248z" transform="matrix(1.33 0 0 1.33 -112.275812 409.874742)" />
		<path d="m671.606-5.328c-4.104-.936-7.2-4.752-7.2-9.36v-17.784h6.552c1.44 0 2.592-1.152 2.592-2.592s-1.152-2.664-2.592-2.664h-6.552v-9.936c0-1.44-1.152-2.592-2.592-2.592h-.792c-1.44 0-2.592 1.152-2.592 2.592v32.976c0 7.488 5.112 13.752 12.024 15.192 1.584.36 3.096-.864 3.096-2.52v-.792c0-1.152-.792-2.232-1.944-2.52z" transform="matrix(1.33 0 0 1.33 -92.990812 409.874742)" />
	</g>
</svg>
